<?xml version="1.0" encoding="UTF-8"?>
<!DOCTYPE svg PUBLIC "-//W3C//DTD SVG 1.1//EN" "http://www.w3.org/Graphics/SVG/1.1/DTD/svg11.dtd">
<svg xmlns="http://www.w3.org/2000/svg" version="1.1" width="512px" height="512px" style="shape-rendering:geometricPrecision; text-rendering:geometricPrecision; image-rendering:optimizeQuality; fill-rule:evenodd; clip-rule:evenodd" xmlns:xlink="http://www.w3.org/1999/xlink">
<g><path style="opacity:0.958" fill="#000000" d="M 250.5,25.5 C 280.538,26.0495 300.705,40.3829 311,68.5C 312.108,72.0863 312.608,75.753 312.5,79.5C 329.17,79.3334 345.837,79.5001 362.5,80C 363.701,80.9025 364.535,82.0692 365,83.5C 365.667,119.167 365.667,154.833 365,190.5C 363.995,194.421 361.495,195.921 357.5,195C 355.667,194.5 354.5,193.333 354,191.5C 353.5,157.835 353.333,124.168 353.5,90.5C 339.833,90.5 326.167,90.5 312.5,90.5C 309.288,116.885 294.954,134.051 269.5,142C 241.96,147.802 220.127,139.302 204,116.5C 199.06,108.512 196.226,99.8453 195.5,90.5C 180.833,90.5 166.167,90.5 151.5,90.5C 151.667,124.502 151.5,158.502 151,192.5C 147.724,196.47 144.391,196.47 141,192.5C 140.333,155.833 140.333,119.167 141,82.5C 141.5,81.3333 142.333,80.5 143.5,80C 160.83,79.5001 178.163,79.3334 195.5,79.5C 200.703,47.9619 219.037,29.9619 250.5,25.5 Z M 252.5,57.5 C 254.582,57.472 256.416,58.1387 258,59.5C 258.667,62.1667 258.667,64.8333 258,67.5C 255.085,70.07 252.419,69.7366 250,66.5C 248.927,62.9003 249.76,59.9003 252.5,57.5 Z M 252.5,74.5 C 254.582,74.472 256.416,75.1387 258,76.5C 258.667,87.5 258.667,98.5 258,109.5C 255.333,113.5 252.667,113.5 250,109.5C 249.333,98.8333 249.333,88.1667 250,77.5C 251.045,76.6266 251.878,75.6266 252.5,74.5 Z"/></g>
<g><path style="opacity:0.98" fill="#000000" d="M 144.5,212.5 C 177.879,214.382 197.713,231.715 204,264.5C 204.997,297.825 189.497,318.992 157.5,328C 130.131,331.73 109.297,321.896 95,298.5C 81.8734,267.897 88.3734,242.397 114.5,222C 123.906,216.473 133.906,213.307 144.5,212.5 Z"/></g>
<g><path style="opacity:0.98" fill="#000000" d="M 362.5,212.5 C 394.59,214.101 414.424,230.434 422,261.5C 425.108,287.112 415.941,306.945 394.5,321C 366.575,334.597 341.742,330.431 320,308.5C 302,283.5 302,258.5 320,233.5C 331.406,220.713 345.573,213.713 362.5,212.5 Z"/></g>
<g><path style="opacity:0.969" fill="#000000" d="M 141.5,340.5 C 187.112,340.316 225.112,356.983 255.5,390.5C 291.636,351.174 336.302,335.34 389.5,343C 446.089,354.589 483.589,387.756 502,442.5C 506.009,455.559 507.675,468.892 507,482.5C 506.097,483.701 504.931,484.535 503.5,485C 338.167,485.667 172.833,485.667 7.5,485C 6.06919,484.535 4.90252,483.701 4,482.5C 5.76167,423.462 32.9283,380.628 85.5,354C 103.488,346.108 122.155,341.608 141.5,340.5 Z M 132.5,352.5 C 177.57,349.631 215.403,364.631 246,397.5C 246.5,398.5 247,399.5 247.5,400.5C 233.092,422.389 224.425,446.389 221.5,472.5C 152.502,473.667 83.5024,473.833 14.5,473C 25.1069,404.566 64.4402,364.4 132.5,352.5 Z"/></g>
</svg>
