<?xml version="1.0" standalone="no"?>
<!DOCTYPE svg PUBLIC "-//W3C//DTD SVG 20010904//EN"
 "http://www.w3.org/TR/2001/REC-SVG-20010904/DTD/svg10.dtd">
<svg version="1.0" xmlns="http://www.w3.org/2000/svg"
 width="512.000000pt" height="512.000000pt" viewBox="0 0 512.000000 512.000000"
 preserveAspectRatio="xMidYMid meet">

<g transform="translate(0.000000,512.000000) scale(0.100000,-0.100000)"
fill="#000000" stroke="none">
<path d="M319 5106 c-151 -42 -276 -173 -308 -326 -9 -41 -11 -475 -9 -1740
l3 -1685 22 -55 c47 -114 140 -205 256 -250 l62 -25 758 -3 757 -3 0 -21 c0
-22 -46 -399 -55 -455 l-6 -33 -117 0 c-101 0 -124 -3 -167 -24 -93 -43 -145
-125 -145 -230 0 -112 65 -206 169 -241 39 -13 171 -15 1021 -15 850 0 982 2
1021 15 130 45 199 187 157 326 -16 55 -73 118 -132 145 -44 21 -66 24 -168
24 l-117 0 -6 33 c-9 56 -55 433 -55 455 l0 21 758 3 c712 3 760 5 807 22 144
55 243 161 279 301 14 52 16 251 16 1722 0 1192 -3 1677 -11 1715 -33 153
-158 283 -313 324 -73 20 -4406 19 -4477 0z m4486 -183 c47 -25 95 -74 121
-123 16 -29 19 -63 22 -197 l4 -163 -2392 0 -2392 0 4 163 c3 134 6 168 22
197 35 67 97 120 166 141 14 4 1011 7 2215 6 l2190 -2 40 -22z m145 -1848 l0
-1195 -2390 0 -2390 0 0 1195 0 1195 2390 0 2390 0 0 -1195z m0 -1508 c0 -167
-13 -223 -64 -284 -20 -22 -58 -51 -88 -64 l-53 -24 -2185 0 -2185 0 -53 24
c-29 13 -68 42 -87 64 -54 63 -65 110 -65 279 l0 148 2390 0 2390 0 0 -143z
m-1866 -569 c8 -37 56 -433 56 -462 l0 -26 -580 0 -580 0 0 26 c0 29 48 425
56 462 l4 22 520 0 520 0 4 -22z m471 -683 c31 -30 33 -83 6 -116 l-19 -24
-982 0 -982 0 -19 24 c-27 33 -25 86 6 116 l24 25 971 0 971 0 24 -25z"/>
<path d="M510 4695 l0 -85 85 0 85 0 0 85 0 85 -85 0 -85 0 0 -85z"/>
<path d="M850 4695 l0 -85 85 0 85 0 0 85 0 85 -85 0 -85 0 0 -85z"/>
<path d="M1197 4774 c-4 -4 -7 -43 -7 -86 l0 -78 90 0 91 0 -3 83 -3 82 -80 3
c-45 1 -84 0 -88 -4z"/>
<path d="M1164 4090 c-56 -22 -54 -2 -54 -678 l0 -624 29 -29 29 -29 1392 0
1392 0 29 29 29 29 0 626 0 625 -24 28 -24 28 -1389 2 c-769 1 -1398 -2 -1409
-7z m2676 -675 l0 -515 -1280 0 -1280 0 0 515 0 515 1280 0 1280 0 0 -515z"/>
<path d="M2329 3724 l-24 -26 -3 -271 c-2 -244 -1 -276 15 -307 13 -24 28 -37
51 -44 31 -9 54 1 303 125 149 74 280 144 292 157 24 26 28 81 7 107 -8 9
-135 77 -282 151 -291 146 -316 153 -359 108z m266 -251 l115 -58 -112 -57
c-62 -31 -116 -57 -120 -57 -5 -1 -8 51 -8 114 0 63 2 115 5 115 3 0 57 -26
120 -57z"/>
<path d="M1885 2547 c-61 -24 -105 -59 -136 -108 l-32 -49 -219 0 -218 0 0
-85 0 -85 218 0 218 0 34 -52 c64 -97 175 -139 286 -108 52 15 135 85 154 130
l12 30 819 0 819 0 0 85 0 85 -819 0 -820 0 -6 21 c-11 33 -75 98 -119 121
-48 25 -148 33 -191 15z m136 -186 c17 -18 29 -40 29 -56 0 -38 -50 -85 -90
-85 -42 0 -80 39 -80 83 0 79 85 114 141 58z"/>
<path d="M4440 1455 l0 -85 85 0 86 0 -3 83 -3 82 -82 3 -83 3 0 -86z"/>
</g>
</svg>
