<?xml version="1.0" encoding="UTF-8"?>
<!DOCTYPE svg PUBLIC "-//W3C//DTD SVG 1.1//EN" "http://www.w3.org/Graphics/SVG/1.1/DTD/svg11.dtd">
<svg xmlns="http://www.w3.org/2000/svg" version="1.1" width="512px" height="512px" style="shape-rendering:geometricPrecision; text-rendering:geometricPrecision; image-rendering:optimizeQuality; fill-rule:evenodd; clip-rule:evenodd" xmlns:xlink="http://www.w3.org/1999/xlink">
<g><path style="opacity:0.934" fill="#000000" d="M 97.5,15.5 C 147.381,12.427 182.715,33.427 203.5,78.5C 238.167,69.1667 272.833,69.1667 307.5,78.5C 333.585,24.9637 375.585,5.79702 433.5,21C 478.588,41.1421 499.088,75.9754 495,125.5C 490.815,151.661 478.315,172.828 457.5,189C 449.426,194.367 441.093,199.2 432.5,203.5C 441.833,238.167 441.833,272.833 432.5,307.5C 486.036,333.585 505.203,375.585 490,433.5C 469.858,478.588 435.025,499.088 385.5,495C 359.339,490.815 338.172,478.315 322,457.5C 316.633,449.426 311.8,441.093 307.5,432.5C 272.833,441.833 238.167,441.833 203.5,432.5C 177.415,486.036 135.415,505.203 77.5,490C 32.4117,469.858 11.9117,435.025 16,385.5C 20.1849,359.339 32.6849,338.172 53.5,322C 61.5736,316.633 69.9069,311.8 78.5,307.5C 71.4477,281.561 69.6143,255.227 73,228.5C 74.0451,219.987 75.8784,211.654 78.5,203.5C 33.2759,182.739 12.4426,147.406 16,97.5C 25.3467,52.3203 52.5134,24.9869 97.5,15.5 Z M 110.5,31.5 C 147.658,33.8121 173.158,52.1454 187,86.5C 189.949,98.2991 191.283,110.299 191,122.5C 198.135,130.636 205.635,138.47 213.5,146C 202.743,147.57 192.077,149.57 181.5,152C 176.224,157.949 170.891,163.949 165.5,170C 140.441,191.077 112.441,196.077 81.5,185C 45.8016,167.787 29.6349,139.287 33,99.5C 39.2909,68.5473 57.1242,47.3807 86.5,36C 94.512,33.7624 102.512,32.2624 110.5,31.5 Z M 398.5,31.5 C 433.436,33.3675 458.269,50.0341 473,81.5C 485.918,121.744 475.418,154.244 441.5,179C 407.451,196.918 375.451,193.918 345.5,170C 340.456,164.624 335.789,158.958 331.5,153C 320.374,149.811 309.04,147.478 297.5,146C 305.365,138.47 312.865,130.636 320,122.5C 317.905,83.1605 334.405,54.9939 369.5,38C 378.998,34.4701 388.665,32.3034 398.5,31.5 Z M 110.5,63.5 C 111.586,63.62 112.253,64.2867 112.5,65.5C 112.684,73.5153 116.684,78.3486 124.5,80C 131.8,83.9208 138.467,83.0875 144.5,77.5C 144.833,77.8333 145.167,78.1667 145.5,78.5C 142.475,81.5499 140.808,85.2166 140.5,89.5C 141.674,96.3446 144.341,102.511 148.5,108C 152.225,109.014 155.892,110.181 159.5,111.5C 155.892,112.819 152.225,113.986 148.5,115C 143.192,121.592 140.692,129.092 141,137.5C 147.5,146.333 146.333,147.5 137.5,141C 129.092,140.692 121.592,143.192 115,148.5C 113.986,152.225 112.819,155.892 111.5,159.5C 110.181,155.892 109.014,152.225 108,148.5C 101.408,143.192 93.9081,140.692 85.5,141C 76.6667,147.5 75.5,146.333 82,137.5C 82.3084,129.092 79.8084,121.592 74.5,115C 70.7748,113.986 67.1081,112.819 63.5,111.5C 67.1081,110.181 70.7748,109.014 74.5,108C 79.8084,101.408 82.3084,93.9081 82,85.5C 75.5,76.6667 76.6667,75.5 85.5,82C 93.9081,82.3084 101.408,79.8084 108,74.5C 109.31,70.9296 110.143,67.263 110.5,63.5 Z M 254.5,87.5 C 271.121,87.9533 287.454,90.4533 303.5,95C 303.957,95.414 304.291,95.914 304.5,96.5C 303.704,103.117 303.204,109.783 303,116.5C 292.696,125.803 282.696,135.47 273,145.5C 271,149.5 271,153.5 273,157.5C 274.648,158.717 276.481,159.55 278.5,160C 292.368,162.339 306.201,164.839 320,167.5C 344.408,198.419 376.241,211.585 415.5,207C 422.555,231.054 424.388,255.554 421,280.5C 419.867,288.529 418.034,296.362 415.5,304C 380.855,299.436 351.522,309.77 327.5,335C 312.833,335.333 298.167,335.667 283.5,336C 282.584,336.374 281.75,336.874 281,337.5C 279.517,340.702 279.183,344.036 280,347.5C 287.272,359.768 294.939,371.768 303,383.5C 303.19,393.88 303.69,404.213 304.5,414.5C 304.291,415.086 303.957,415.586 303.5,416C 279.107,422.866 254.44,424.532 229.5,421C 222.095,419.649 214.762,417.982 207.5,416C 207.043,415.586 206.709,415.086 206.5,414.5C 207.31,404.213 207.81,393.88 208,383.5C 216.061,371.768 223.728,359.768 231,347.5C 231.817,344.036 231.483,340.702 230,337.5C 229.25,336.874 228.416,336.374 227.5,336C 212.833,335.667 198.167,335.333 183.5,335C 159.478,309.77 130.145,299.436 95.5,304C 88.4264,279.614 86.5931,254.78 90,229.5C 91.2913,221.835 93.1247,214.335 95.5,207C 134.759,211.585 166.592,198.419 191,167.5C 204.799,164.839 218.632,162.339 232.5,160C 237.548,159.403 239.882,156.57 239.5,151.5C 239.485,149.366 238.985,147.366 238,145.5C 228.304,135.47 218.304,125.803 208,116.5C 207.796,109.783 207.296,103.117 206.5,96.5C 206.709,95.914 207.043,95.414 207.5,95C 223.018,90.607 238.685,88.107 254.5,87.5 Z M 108.5,104.5 C 117.85,104.365 120.517,108.532 116.5,117C 107.956,120.322 104.123,117.489 105,108.5C 105.69,106.65 106.856,105.316 108.5,104.5 Z M 255.5,191.5 C 260.833,191.5 266.167,191.5 271.5,191.5C 271.894,203.886 271.394,216.22 270,228.5C 262.067,242.986 252.734,243.986 242,231.5C 238.387,220.336 238.72,209.336 243,198.5C 246.464,194.69 250.631,192.356 255.5,191.5 Z M 254.5,259.5 C 266.751,263.744 278.251,269.411 289,276.5C 294.247,284.677 296.413,293.677 295.5,303.5C 268.833,303.5 242.167,303.5 215.5,303.5C 213.271,289.479 217.937,278.646 229.5,271C 238.163,267.665 246.496,263.832 254.5,259.5 Z M 110.5,319.5 C 136.682,320.926 158.349,331.426 175.5,351C 186.182,351.168 196.849,351.668 207.5,352.5C 201.416,361.665 195.583,370.998 190,380.5C 194.983,413.232 185.15,440.398 160.5,462C 128.355,484.588 96.0221,484.922 63.5,463C 35.5703,439.475 26.4037,409.975 36,374.5C 49.4484,340.697 74.2817,322.364 110.5,319.5 Z M 398.5,319.5 C 433.436,321.367 458.269,338.034 473,369.5C 485.46,406.502 476.96,437.669 447.5,463C 411.779,485.906 377.445,483.906 344.5,457C 324.21,435.456 316.377,409.956 321,380.5C 315.417,370.998 309.584,361.665 303.5,352.5C 314.151,351.668 324.818,351.168 335.5,351C 352.25,331.958 373.25,321.458 398.5,319.5 Z M 391.5,352.5 C 418.966,351.132 431.799,364.132 430,391.5C 426.577,403.091 419.077,410.424 407.5,413.5C 407.169,405.14 407.502,396.807 408.5,388.5C 412.327,386.754 415.993,384.754 419.5,382.5C 417,377.5 414.5,372.5 412,367.5C 408.026,369.904 403.86,371.904 399.5,373.5C 395.14,371.904 390.974,369.904 387,367.5C 384.5,372.5 382,377.5 379.5,382.5C 383.007,384.754 386.673,386.754 390.5,388.5C 391.498,396.807 391.831,405.14 391.5,413.5C 376.775,409.233 369.108,399.4 368.5,384C 368.986,368.173 376.653,357.673 391.5,352.5 Z M 132.5,360.5 C 136.121,361.628 138.121,364.128 138.5,368C 137.181,372.941 136.181,377.941 135.5,383C 135.494,385.3 135.994,387.466 137,389.5C 142.007,391.1 147.174,392.267 152.5,393C 154.049,394.214 155.215,395.714 156,397.5C 155.605,407.599 154.272,417.599 152,427.5C 150.442,429.768 148.276,430.934 145.5,431C 135.772,431.891 126.106,431.557 116.5,430C 111.945,424.445 107.779,418.612 104,412.5C 103.5,405.508 103.334,398.508 103.5,391.5C 107.514,391.666 111.514,391.499 115.5,391C 116.416,390.626 117.25,390.126 118,389.5C 122.847,379.807 127.68,370.14 132.5,360.5 Z M 71.5,383.5 C 76.8333,383.5 82.1667,383.5 87.5,383.5C 87.5,399.5 87.5,415.5 87.5,431.5C 82.1667,431.5 76.8333,431.5 71.5,431.5C 71.5,415.5 71.5,399.5 71.5,383.5 Z M 391.5,431.5 C 396.833,431.5 402.167,431.5 407.5,431.5C 407.5,436.833 407.5,442.167 407.5,447.5C 402.167,447.5 396.833,447.5 391.5,447.5C 391.5,442.167 391.5,436.833 391.5,431.5 Z"/></g>
<g><path style="opacity:0.938" fill="#000000" d="M 99.5,47.5 C 107.507,47.3336 115.507,47.5003 123.5,48C 125.049,49.214 126.215,50.714 127,52.5C 127.771,55.8591 128.605,59.1925 129.5,62.5C 130.328,63.4147 131.328,64.0814 132.5,64.5C 135.96,62.8674 139.294,61.034 142.5,59C 145.634,58.2099 148.634,58.5432 151.5,60C 156.034,64.1994 160.201,68.6994 164,73.5C 164.667,75.8333 164.667,78.1667 164,80.5C 162.421,83.9939 160.587,87.3272 158.5,90.5C 158.833,91.1667 159.167,91.8333 159.5,92.5C 162.928,94.2254 166.595,95.3921 170.5,96C 172.286,96.7845 173.786,97.9512 175,99.5C 175.667,107.5 175.667,115.5 175,123.5C 173.786,125.049 172.286,126.215 170.5,127C 167.141,127.771 163.808,128.605 160.5,129.5C 159.585,130.328 158.919,131.328 158.5,132.5C 160.587,135.673 162.421,139.006 164,142.5C 164.79,145.634 164.457,148.634 163,151.5C 158.801,156.034 154.301,160.201 149.5,164C 147.167,164.667 144.833,164.667 142.5,164C 139.294,161.966 135.96,160.133 132.5,158.5C 131.833,158.833 131.167,159.167 130.5,159.5C 128.775,162.928 127.608,166.595 127,170.5C 126.215,172.286 125.049,173.786 123.5,175C 115.5,175.667 107.5,175.667 99.5,175C 97.9512,173.786 96.7845,172.286 96,170.5C 95.2287,167.141 94.3953,163.808 93.5,160.5C 92.6721,159.585 91.6721,158.919 90.5,158.5C 87.3272,160.587 83.9939,162.421 80.5,164C 77.366,164.79 74.366,164.457 71.5,163C 66.9657,158.801 62.799,154.301 59,149.5C 58.3333,147.167 58.3333,144.833 59,142.5C 61.034,139.294 62.8674,135.96 64.5,132.5C 64.1667,131.833 63.8333,131.167 63.5,130.5C 60.072,128.775 56.4054,127.608 52.5,127C 50.714,126.215 49.214,125.049 48,123.5C 47.3333,115.5 47.3333,107.5 48,99.5C 49.214,97.9512 50.714,96.7845 52.5,96C 55.8591,95.2287 59.1925,94.3953 62.5,93.5C 63.4147,92.6721 64.0814,91.6721 64.5,90.5C 62.8674,87.0397 61.034,83.7064 59,80.5C 58.2099,77.366 58.5432,74.366 60,71.5C 64.1994,66.9657 68.6994,62.799 73.5,59C 75.8333,58.3333 78.1667,58.3333 80.5,59C 83.9939,60.5795 87.3272,62.4128 90.5,64.5C 91.1667,64.1667 91.8333,63.8333 92.5,63.5C 94.2254,60.072 95.3921,56.4054 96,52.5C 96.9973,50.6769 98.1639,49.0103 99.5,47.5 Z M 110.5,63.5 C 110.143,67.263 109.31,70.9296 108,74.5C 101.408,79.8084 93.9081,82.3084 85.5,82C 76.6667,75.5 75.5,76.6667 82,85.5C 82.3084,93.9081 79.8084,101.408 74.5,108C 70.7748,109.014 67.1081,110.181 63.5,111.5C 67.1081,112.819 70.7748,113.986 74.5,115C 79.8084,121.592 82.3084,129.092 82,137.5C 75.5,146.333 76.6667,147.5 85.5,141C 93.9081,140.692 101.408,143.192 108,148.5C 109.014,152.225 110.181,155.892 111.5,159.5C 112.819,155.892 113.986,152.225 115,148.5C 121.592,143.192 129.092,140.692 137.5,141C 146.333,147.5 147.5,146.333 141,137.5C 140.692,129.092 143.192,121.592 148.5,115C 152.225,113.986 155.892,112.819 159.5,111.5C 155.892,110.181 152.225,109.014 148.5,108C 144.341,102.511 141.674,96.3446 140.5,89.5C 140.808,85.2166 142.475,81.5499 145.5,78.5C 145.167,78.1667 144.833,77.8333 144.5,77.5C 138.467,83.0875 131.8,83.9208 124.5,80C 116.684,78.3486 112.684,73.5153 112.5,65.5C 112.253,64.2867 111.586,63.62 110.5,63.5 Z M 108.5,104.5 C 106.856,105.316 105.69,106.65 105,108.5C 104.123,117.489 107.956,120.322 116.5,117C 120.517,108.532 117.85,104.365 108.5,104.5 Z"/></g>
<g><path style="opacity:0.928" fill="#000000" d="M 387.5,47.5 C 399.404,46.6468 411.071,47.8134 422.5,51C 424.555,51.6872 426.221,52.8539 427.5,54.5C 425.324,59.5278 422.657,64.1944 419.5,68.5C 393.907,59.1969 373.407,65.8636 358,88.5C 346.554,115.151 352.72,136.651 376.5,153C 399.788,163.634 419.955,159.467 437,140.5C 447.163,126.197 449.163,110.863 443,94.5C 430.141,108.358 416.975,121.858 403.5,135C 400.036,135.817 396.702,135.483 393.5,134C 388.333,128.833 383.167,123.667 378,118.5C 377.333,117.833 377.333,117.167 378,116.5C 381.5,113 385,109.5 388.5,106C 392.283,107.748 395.616,110.414 398.5,114C 399.167,114.667 399.833,114.667 400.5,114C 413.859,99.642 427.525,85.642 441.5,72C 445.244,71.0715 448.744,71.5715 452,73.5C 464.159,92.4874 466.825,112.821 460,134.5C 445.935,164.956 422.102,178.456 388.5,175C 360.117,168.951 342.617,151.784 336,123.5C 332.58,83.9594 349.747,58.6261 387.5,47.5 Z"/></g>
<g><path style="opacity:0.932" fill="#000000" d="M 104.5,87.5 C 119.367,85.0115 129.534,90.6782 135,104.5C 137.982,119.376 132.482,129.543 118.5,135C 103.624,137.982 93.4572,132.482 88,118.5C 85.1465,103.533 90.6465,93.1994 104.5,87.5 Z M 108.5,104.5 C 106.856,105.316 105.69,106.65 105,108.5C 104.123,117.489 107.956,120.322 116.5,117C 120.517,108.532 117.85,104.365 108.5,104.5 Z"/></g>
<g><path style="opacity:0.925" fill="#000000" d="M 238.5,103.5 C 252.537,103.158 266.537,103.658 280.5,105C 280.957,105.414 281.291,105.914 281.5,106.5C 280.453,110.778 279.62,115.112 279,119.5C 277.991,120.658 276.658,121.325 275,121.5C 268.465,120.943 261.965,120.276 255.5,119.5C 249.035,120.276 242.535,120.943 236,121.5C 234.833,121.167 233.667,120.833 232.5,120.5C 231.5,115.833 230.5,111.167 229.5,106.5C 229.709,105.914 230.043,105.414 230.5,105C 233.365,104.817 236.031,104.317 238.5,103.5 Z"/></g>
<g><path style="opacity:0.963" fill="#000000" d="M 247.5,175.5 C 259.505,175.333 271.505,175.5 283.5,176C 285.333,176.5 286.5,177.667 287,179.5C 287.667,197.167 287.667,214.833 287,232.5C 284.918,239.073 281.418,244.74 276.5,249.5C 287.087,253.374 296.253,259.374 304,267.5C 307.422,272.345 309.755,277.678 311,283.5C 311.667,294.167 311.667,304.833 311,315.5C 310.5,317.333 309.333,318.5 307.5,319C 272.833,319.667 238.167,319.667 203.5,319C 201.667,318.5 200.5,317.333 200,315.5C 199.333,304.833 199.333,294.167 200,283.5C 201.954,273.882 206.787,266.048 214.5,260C 221.04,256.23 227.707,252.73 234.5,249.5C 229.582,244.74 226.082,239.073 224,232.5C 223.333,221.5 223.333,210.5 224,199.5C 227.349,186.985 235.182,178.985 247.5,175.5 Z M 255.5,191.5 C 250.631,192.356 246.464,194.69 243,198.5C 238.72,209.336 238.387,220.336 242,231.5C 252.734,243.986 262.067,242.986 270,228.5C 271.394,216.22 271.894,203.886 271.5,191.5C 266.167,191.5 260.833,191.5 255.5,191.5 Z M 254.5,259.5 C 246.496,263.832 238.163,267.665 229.5,271C 217.937,278.646 213.271,289.479 215.5,303.5C 242.167,303.5 268.833,303.5 295.5,303.5C 296.413,293.677 294.247,284.677 289,276.5C 278.251,269.411 266.751,263.744 254.5,259.5 Z"/></g>
<g><path style="opacity:0.924" fill="#000000" d="M 106.5,221.5 C 112.192,222.372 117.859,223.372 123.5,224.5C 119.5,245.167 119.5,265.833 123.5,286.5C 117.859,287.628 112.192,288.628 106.5,289.5C 102.5,266.833 102.5,244.167 106.5,221.5 Z"/></g>
<g><path style="opacity:0.922" fill="#000000" d="M 400.5,221.5 C 401.833,221.5 403.167,221.5 404.5,221.5C 408.5,244.167 408.5,266.833 404.5,289.5C 398.808,288.628 393.141,287.628 387.5,286.5C 391.5,265.833 391.5,245.167 387.5,224.5C 392.052,223.943 396.385,222.943 400.5,221.5 Z"/></g>
<g><path style="opacity:0.954" fill="#000000" d="M 389.5,335.5 C 419.16,332.564 438.326,345.231 447,373.5C 450.728,396.015 443.061,413.348 424,425.5C 423.667,436.833 423.333,448.167 423,459.5C 422.5,461.333 421.333,462.5 419.5,463C 406.167,463.667 392.833,463.667 379.5,463C 378.584,462.626 377.75,462.126 377,461.5C 375.707,449.596 375.04,437.596 375,425.5C 356.327,413.182 348.66,395.849 352,373.5C 357.349,353.652 369.849,340.985 389.5,335.5 Z M 391.5,352.5 C 376.653,357.673 368.986,368.173 368.5,384C 369.108,399.4 376.775,409.233 391.5,413.5C 391.831,405.14 391.498,396.807 390.5,388.5C 386.673,386.754 383.007,384.754 379.5,382.5C 382,377.5 384.5,372.5 387,367.5C 390.974,369.904 395.14,371.904 399.5,373.5C 403.86,371.904 408.026,369.904 412,367.5C 414.5,372.5 417,377.5 419.5,382.5C 415.993,384.754 412.327,386.754 408.5,388.5C 407.502,396.807 407.169,405.14 407.5,413.5C 419.077,410.424 426.577,403.091 430,391.5C 431.799,364.132 418.966,351.132 391.5,352.5 Z M 391.5,431.5 C 391.5,436.833 391.5,442.167 391.5,447.5C 396.833,447.5 402.167,447.5 407.5,447.5C 407.5,442.167 407.5,436.833 407.5,431.5C 402.167,431.5 396.833,431.5 391.5,431.5 Z"/></g>
<g><path style="opacity:0.967" fill="#000000" d="M 123.5,343.5 C 146.043,341.544 156.376,351.711 154.5,374C 168.588,379.772 174.754,390.272 173,405.5C 171.853,414.197 170.52,422.864 169,431.5C 165.745,439.089 160.245,444.256 152.5,447C 139.167,447.667 125.833,447.667 112.5,447C 109.671,445.753 107.005,444.253 104.5,442.5C 103.158,444.342 101.491,445.842 99.5,447C 85.4059,447.964 71.4059,447.631 57.5,446C 56.8742,445.25 56.3742,444.416 56,443.5C 55.8333,431.5 55.6667,419.5 55.5,407.5C 55.3514,394.742 55.8514,382.075 57,369.5C 57.7504,368.874 58.5838,368.374 59.5,368C 72.8333,367.333 86.1667,367.333 99.5,368C 102.521,369.539 103.854,372.039 103.5,375.5C 104.675,375.719 105.675,375.386 106.5,374.5C 111.449,363.588 117.116,353.255 123.5,343.5 Z M 132.5,360.5 C 127.68,370.14 122.847,379.807 118,389.5C 117.25,390.126 116.416,390.626 115.5,391C 111.514,391.499 107.514,391.666 103.5,391.5C 103.334,398.508 103.5,405.508 104,412.5C 107.779,418.612 111.945,424.445 116.5,430C 126.106,431.557 135.772,431.891 145.5,431C 148.276,430.934 150.442,429.768 152,427.5C 154.272,417.599 155.605,407.599 156,397.5C 155.215,395.714 154.049,394.214 152.5,393C 147.174,392.267 142.007,391.1 137,389.5C 135.994,387.466 135.494,385.3 135.5,383C 136.181,377.941 137.181,372.941 138.5,368C 138.121,364.128 136.121,361.628 132.5,360.5 Z M 71.5,383.5 C 71.5,399.5 71.5,415.5 71.5,431.5C 76.8333,431.5 82.1667,431.5 87.5,431.5C 87.5,415.5 87.5,399.5 87.5,383.5C 82.1667,383.5 76.8333,383.5 71.5,383.5 Z"/></g>
<g><path style="opacity:0.922" fill="#000000" d="M 224.5,387.5 C 245.167,391.5 265.833,391.5 286.5,387.5C 287.66,393.139 288.66,398.805 289.5,404.5C 266.833,408.5 244.167,408.5 221.5,404.5C 222.34,398.805 223.34,393.139 224.5,387.5 Z"/></g>
</svg>
