<?xml version="1.0" standalone="no"?>
<!DOCTYPE svg PUBLIC "-//W3C//DTD SVG 20010904//EN"
 "http://www.w3.org/TR/2001/REC-SVG-20010904/DTD/svg10.dtd">
<svg version="1.0" xmlns="http://www.w3.org/2000/svg"
 width="512.000000pt" height="512.000000pt" viewBox="0 0 512.000000 512.000000"
 preserveAspectRatio="xMidYMid meet">

<g transform="translate(0.000000,512.000000) scale(0.100000,-0.100000)"
fill="#000000" stroke="none">
<path d="M415 4786 c-67 -29 -105 -105 -90 -183 6 -34 227 -259 2123 -2155
1896 -1896 2121 -2117 2155 -2123 60 -11 107 3 148 44 41 41 55 88 44 149 -6
32 -59 89 -426 458 l-420 421 73 55 c200 150 404 372 543 588 103 161 235 452
235 520 0 17 -18 79 -41 136 -183 469 -519 861 -967 1129 -259 155 -565 262
-892 312 -161 24 -520 24 -680 0 -231 -35 -473 -106 -658 -193 -52 -24 -100
-44 -106 -44 -6 0 -207 196 -446 436 -245 246 -449 442 -467 450 -40 17 -89
17 -128 0z m2376 -1295 c179 -46 319 -127 449 -260 129 -130 212 -278 257
-457 27 -107 24 -333 -5 -444 -22 -80 -103 -261 -137 -305 -15 -19 -45 10
-680 645 -366 366 -664 669 -662 674 2 5 43 31 92 57 93 50 211 92 305 108 86
15 293 6 381 -18z"/>
<path d="M818 3418 c-161 -178 -255 -309 -350 -488 -70 -132 -148 -326 -148
-370 0 -42 77 -236 142 -360 301 -570 819 -978 1464 -1155 217 -59 376 -79
634 -79 271 0 461 26 690 94 59 18 70 24 70 43 0 16 -75 97 -253 275 l-254
254 -103 -18 c-338 -56 -696 91 -912 376 -65 85 -141 243 -169 350 -27 102
-32 296 -10 404 l14 68 -349 349 c-192 192 -356 349 -365 349 -10 0 -55 -42
-101 -92z"/>
</g>
</svg>
