<?xml version="1.0" encoding="UTF-8"?>
<svg version="1.1" viewBox="0 0 2048 2048" width="1280" height="1280" xmlns="http://www.w3.org/2000/svg">
<path transform="translate(1183,338)" d="m0 0h25l16 4 16 8 10 7 10 9 10 14 7 15 4 16v23l-3 15-48 168-59 207-59 206-59 207-59 206-56 196-6 17-9 16-11 12-7 6-13 8-16 6-14 3h-18l-18-4-16-7-12-9-8-7-11-15-7-14-4-16-1-8v-10l3-18 15-53 13-46 11-38 288-1008 15-53 6-16 9-14 9-10 8-7 13-8 12-5z"/>
<path transform="translate(500,596)" d="m0 0h25l14 3 16 7 14 10 11 11 10 15 6 16 3 14v19l-4 17-7 16-9 13-6 7h-2l-2 4-12 12h-2l-2 4h-2l-2 4-6 5-6 7-6 5-6 7-6 5-6 7-6 5-6 7-6 5-6 7-6 5-6 7-6 5-6 7-6 5-6 7-6 5-6 7-6 5-6 7-6 5-6 7-6 5-6 7-6 5-6 7-6 5-6 7-7 6-5 6-6 5-6 7-7 6-5 6-7 6-5 6-6 5-6 7-4 4h-2l-2 4-3 1-2 4-14 14 2 4 76 76v2l4 2v2l4 2v2l4 2v2l4 2v2l4 2v2l4 2 100 100v2l4 2v2l4 2v2l4 2v2l4 2v2l4 2v2l4 2v2l4 2v2l4 2v2l4 2v2l4 2v2l4 2v2l4 2v2l4 2v2l4 2v2l4 2 16 16 7 8 9 13 6 12 4 15 1 6v19l-4 17-7 16-10 14-9 9-10 7-16 8-15 4-7 1h-18l-15-3-16-7-11-7-12-11-342-342-9-12-6-10-6-18-2-13v-9l2-13 3-11 5-12 7-11 11-12 5-6 7-6 5-6 7-6 5-6 7-6 5-6 7-6 5-6 7-6 5-6 7-6 5-6 7-6 5-6 7-6 5-6 7-6 5-6 7-6 5-6 7-6 5-6 7-6 5-6 7-6 5-6 7-6 5-6 7-6 5-6 7-6 5-6 7-6 5-6 7-6 5-6 7-6 5-6 7-6 5-6 7-6 5-6 7-6 5-6 7-6 5-6 6-5 6-7 6-5 6-7 6-5 7-8h2l2-4h2l2-4h2l2-4h2l2-4h2l1-3 8-7 12-9 15-7z"/>
<path transform="translate(1522,596)" d="m0 0h26l16 4 16 8 12 9 10 10 6 5 6 7 6 5 7 8 103 103 6 5 6 7 6 5 6 7 6 5 6 7 6 5 7 8 139 139 6 5 7 8 12 12 9 13 6 12 5 19v23l-4 17-8 16-9 13-351 351-10 7-14 7-13 4-11 2h-17l-16-3-16-7-11-7-12-11-9-12-8-16-4-13-1-6v-21l4-17 7-16 10-13 9-10 275-275-1-4-284-284-9-13-7-15-4-16v-22l4-17 6-14 10-14 7-8 13-10 14-7 13-4z"/>
</svg>
