<?xml version="1.0" standalone="no"?>
<!DOCTYPE svg PUBLIC "-//W3C//DTD SVG 20010904//EN"
 "http://www.w3.org/TR/2001/REC-SVG-20010904/DTD/svg10.dtd">
<svg version="1.0" xmlns="http://www.w3.org/2000/svg"
 width="399.000000pt" height="346.000000pt" viewBox="0 0 399.000000 346.000000"
 preserveAspectRatio="xMidYMid meet">

<g transform="translate(0.000000,346.000000) scale(0.100000,-0.100000)"
fill="#000000" stroke="none">
<path d="M1618 3440 c-202 -32 -359 -110 -494 -244 -113 -114 -187 -246 -226
-404 -29 -119 -29 -293 1 -407 138 -523 708 -790 1195 -561 89 42 153 88 234
168 325 321 335 841 23 1180 -152 165 -354 259 -582 272 -52 2 -120 1 -151 -4z"/>
<path d="M3711 1535 c-39 -12 -108 -77 -538 -507 l-493 -493 -157 157 c-87 86
-174 164 -193 174 -73 38 -188 16 -247 -48 -52 -56 -68 -160 -35 -230 26 -56
490 -524 543 -548 56 -25 122 -25 177 0 31 14 193 171 610 590 583 588 612
620 612 695 0 93 -67 184 -153 210 -60 18 -69 18 -126 0z"/>
<path d="M1443 1294 c-240 -29 -551 -104 -747 -181 -233 -90 -391 -186 -511
-307 -148 -150 -165 -206 -165 -538 l0 -238 955 0 c525 0 955 3 955 6 0 4 -55
64 -123 133 -137 141 -184 215 -217 347 -39 150 -18 313 57 457 28 54 69 104
161 198 l122 126 -31 7 c-54 10 -338 5 -456 -10z"/>
</g>
</svg>
