<?xml version="1.0" encoding="UTF-8"?>
<!DOCTYPE svg PUBLIC "-//W3C//DTD SVG 1.1//EN" "http://www.w3.org/Graphics/SVG/1.1/DTD/svg11.dtd">
<svg xmlns="http://www.w3.org/2000/svg" version="1.1" width="512px" height="512px" style="shape-rendering:geometricPrecision; text-rendering:geometricPrecision; image-rendering:optimizeQuality; fill-rule:evenodd; clip-rule:evenodd" xmlns:xlink="http://www.w3.org/1999/xlink">
<g><path style="opacity:0.994" fill="#000000" d="M 511.5,101.5 C 511.5,107.833 511.5,114.167 511.5,120.5C 508.447,129.756 503.447,137.923 496.5,145C 427.319,198.425 358.319,252.092 289.5,306C 273.917,319.975 256.25,323.309 236.5,316C 231.228,313.059 226.228,309.726 221.5,306C 152.167,252 82.8333,198 13.5,144C 6.62202,137.399 1.95535,129.566 -0.5,120.5C -0.5,114.167 -0.5,107.833 -0.5,101.5C 4.98517,81.8488 17.6518,69.3488 37.5,64C 182.833,63.3333 328.167,63.3333 473.5,64C 493.348,69.3488 506.015,81.8488 511.5,101.5 Z"/></g>
<g><path style="opacity:0.994" fill="#000000" d="M -0.5,172.5 C 70.1647,226.508 140.498,281.008 210.5,336C 239.921,354.961 269.588,355.294 299.5,337C 369.757,281.569 440.423,226.736 511.5,172.5C 511.5,251.5 511.5,330.5 511.5,409.5C 506.015,429.151 493.348,441.651 473.5,447C 328.167,447.667 182.833,447.667 37.5,447C 17.6518,441.651 4.98517,429.151 -0.5,409.5C -0.5,330.5 -0.5,251.5 -0.5,172.5 Z"/></g>
</svg>
