<?xml version="1.0" encoding="UTF-8"?>
<!DOCTYPE svg PUBLIC "-//W3C//DTD SVG 1.1//EN" "http://www.w3.org/Graphics/SVG/1.1/DTD/svg11.dtd">
<svg xmlns="http://www.w3.org/2000/svg" version="1.1" width="512px" height="512px" style="shape-rendering:geometricPrecision; text-rendering:geometricPrecision; image-rendering:optimizeQuality; fill-rule:evenodd; clip-rule:evenodd" xmlns:xlink="http://www.w3.org/1999/xlink">
<g><path style="opacity:0.988" fill="#000000" d="M 237.5,-0.5 C 249.5,-0.5 261.5,-0.5 273.5,-0.5C 343.726,10.3686 390.56,49.3686 414,116.5C 426.697,162.226 421.697,205.892 399,247.5C 355.333,315.5 311.667,383.5 268,451.5C 259.667,459.5 251.333,459.5 243,451.5C 200,384.5 157,317.5 114,250.5C 86.7689,201.958 83.1023,151.625 103,99.5C 130.044,42.2952 174.877,8.9619 237.5,-0.5 Z M 244.5,90.5 C 287.142,88.0546 314.975,107.055 328,147.5C 334.068,192.732 315.568,222.566 272.5,237C 227.268,243.068 197.434,224.568 183,181.5C 176.914,139.828 193.08,110.662 231.5,94C 235.929,92.6823 240.262,91.5156 244.5,90.5 Z"/></g>
<g><path style="opacity:0.984" fill="#000000" d="M 287.5,511.5 C 266.167,511.5 244.833,511.5 223.5,511.5C 182.03,509.086 141.364,501.586 101.5,489C 77.9928,481.674 57.8261,469.174 41,451.5C 24.0594,425.09 27.5594,401.59 51.5,381C 70.4366,366.699 91.4366,356.366 114.5,350C 122.217,347.988 129.884,345.821 137.5,343.5C 164.569,384.626 191.402,425.96 218,467.5C 237.661,486.728 259.494,489.561 283.5,476C 286.427,473.618 289.261,471.118 292,468.5C 318.061,428.768 343.728,388.768 369,348.5C 370.041,346.415 371.541,344.748 373.5,343.5C 391.601,348.034 409.267,353.867 426.5,361C 442.597,368.105 456.764,377.938 469,390.5C 483.951,410.613 484.285,430.946 470,451.5C 457.186,465.33 442.019,475.83 424.5,483C 396.478,494.256 367.478,501.923 337.5,506C 320.731,508.294 304.064,510.128 287.5,511.5 Z"/></g>
</svg>
