<?xml version="1.0" encoding="UTF-8"?>
<!DOCTYPE svg PUBLIC "-//W3C//DTD SVG 1.1//EN" "http://www.w3.org/Graphics/SVG/1.1/DTD/svg11.dtd">
<svg xmlns="http://www.w3.org/2000/svg" version="1.1" width="512px" height="512px" style="shape-rendering:geometricPrecision; text-rendering:geometricPrecision; image-rendering:optimizeQuality; fill-rule:evenodd; clip-rule:evenodd" xmlns:xlink="http://www.w3.org/1999/xlink">
<g><path style="opacity:0.967" fill="#000000" d="M 263.5,-0.5 C 265.5,-0.5 267.5,-0.5 269.5,-0.5C 364.258,16.9421 435.092,67.6087 482,151.5C 495.544,177.972 505.377,205.639 511.5,234.5C 511.5,236.5 511.5,238.5 511.5,240.5C 498.195,242.718 484.862,244.718 471.5,246.5C 454.888,163.421 409.222,102.254 334.5,63C 310.098,51.0328 284.431,43.1995 257.5,39.5C 259.225,26.0911 261.225,12.7578 263.5,-0.5 Z"/></g>
<g><path style="opacity:0.988" fill="#000000" d="M 375.5,511.5 C 365.833,511.5 356.167,511.5 346.5,511.5C 319.071,507.304 292.737,499.138 267.5,487C 173.975,441.475 100.142,374.309 46,285.5C 23.4848,248.434 7.98481,208.767 -0.5,166.5C -0.5,156.5 -0.5,146.5 -0.5,136.5C 1.38718,125.358 5.55385,115.024 12,105.5C 28.8618,88.3044 46.0284,71.4711 63.5,55C 79.527,45.5433 94.8603,46.5433 109.5,58C 131.333,79.8333 153.167,101.667 175,123.5C 187.177,137.928 188.51,153.261 179,169.5C 164.362,185.138 149.362,200.471 134,215.5C 133.077,217.034 132.577,218.701 132.5,220.5C 140.089,239.681 150.255,257.348 163,273.5C 187.947,304.782 216.447,332.282 248.5,356C 261.79,364.812 275.79,372.312 290.5,378.5C 291.5,378.333 292.5,378.167 293.5,378C 309.227,361.605 325.56,345.938 342.5,331C 358.648,322.396 373.648,324.062 387.5,336C 409.333,357.833 431.167,379.667 453,401.5C 465.626,418.138 465.626,434.805 453,451.5C 437.5,467 422,482.5 406.5,498C 397.051,504.729 386.717,509.229 375.5,511.5 Z"/></g>
<g><path style="opacity:0.966" fill="#000000" d="M 257.5,101.5 C 322.896,112.074 369.396,147.407 397,207.5C 401.921,220.186 405.754,233.186 408.5,246.5C 394.923,249.374 381.256,251.707 367.5,253.5C 358.211,205.374 331.211,171.207 286.5,151C 275.592,146.807 264.425,143.64 253,141.5C 254.353,128.186 255.853,114.853 257.5,101.5 Z"/></g>
</svg>
