<?xml version="1.0" encoding="UTF-8"?>
<!DOCTYPE svg PUBLIC "-//W3C//DTD SVG 1.1//EN" "http://www.w3.org/Graphics/SVG/1.1/DTD/svg11.dtd">
<svg xmlns="http://www.w3.org/2000/svg" version="1.1" width="512px" height="512px" style="shape-rendering:geometricPrecision; text-rendering:geometricPrecision; image-rendering:optimizeQuality; fill-rule:evenodd; clip-rule:evenodd" xmlns:xlink="http://www.w3.org/1999/xlink">
<g><path style="opacity:0.959" fill="#000000" d="M 348.5,1.5 C 388.405,-0.474206 423.905,10.8591 455,35.5C 461.3,44.0736 460.8,52.2403 453.5,60C 449.211,62.8766 444.544,63.8766 439.5,63C 431.255,58.427 423.255,53.427 415.5,48C 377.671,28.4684 340.004,28.8017 302.5,49C 295.672,53.9148 288.672,58.5814 281.5,63C 264.098,64.2622 257.598,56.4289 262,39.5C 280.383,21.887 302.216,10.387 327.5,5C 334.608,3.59316 341.608,2.42649 348.5,1.5 Z"/></g>
<g><path style="opacity:0.978" fill="#000000" d="M 100.5,12.5 C 132.076,10.3517 152.243,24.3517 161,54.5C 164.557,78.8795 156.057,97.7129 135.5,111C 106.583,123.956 82.7496,117.789 64,92.5C 53.7661,73.3314 54.0994,54.3314 65,35.5C 73.9031,23.1423 85.7364,15.4756 100.5,12.5 Z"/></g>
<g><path style="opacity:0.959" fill="#000000" d="M 348.5,64.5 C 377.193,61.7862 402.026,70.1195 423,89.5C 427.193,106.973 420.36,114.806 402.5,113C 383.08,96.8447 361.414,92.8447 337.5,101C 330.222,104.633 323.222,108.633 316.5,113C 301.333,114.5 294.5,107.667 296,92.5C 298.785,87.3811 302.618,83.2144 307.5,80C 320.193,71.9403 333.86,66.7736 348.5,64.5 Z"/></g>
<g><path style="opacity:0.978" fill="#000000" d="M 511.5,94.5 C 511.5,99.1667 511.5,103.833 511.5,108.5C 498.401,142.952 485.568,177.619 473,212.5C 467.001,225.83 456.834,233.997 442.5,237C 404.167,237.667 365.833,237.667 327.5,237C 316.099,232.377 311.266,223.877 313,211.5C 314.732,203.435 319.565,198.268 327.5,196C 362.833,195.667 398.167,195.333 433.5,195C 446.662,159.517 459.828,124.017 473,88.5C 485.353,76.2376 497.353,76.5709 509,89.5C 509.757,91.3146 510.59,92.9812 511.5,94.5 Z"/></g>
<g><path style="opacity:0.954" fill="#000000" d="M 357.5,120.5 C 378.307,121.803 387.807,132.803 386,153.5C 382.214,166.409 373.548,173.409 360,174.5C 340.567,171.963 331.901,160.963 334,141.5C 337.337,129.323 345.17,122.323 357.5,120.5 Z"/></g>
<g><path style="opacity:0.979" fill="#000000" d="M -0.5,494.5 C -0.5,490.167 -0.5,485.833 -0.5,481.5C 10.1741,444.959 20.1741,408.125 29.5,371C 19.9633,307.952 9.96325,245.119 -0.5,182.5C -0.5,177.5 -0.5,172.5 -0.5,167.5C 6.55673,154.089 17.2234,150.256 31.5,156C 35.3881,158.222 38.2214,161.388 40,165.5C 50.5909,227.379 60.4242,289.379 69.5,351.5C 75.2055,351.829 80.8722,351.495 86.5,350.5C 81.8191,342.445 78.9858,333.779 78,324.5C 77.018,272.788 77.3513,221.121 79,169.5C 86.2727,152.609 99.106,145.776 117.5,149C 121.286,150.393 124.952,152.059 128.5,154C 153.5,179 178.5,204 203.5,229C 204.833,229.667 206.167,230.333 207.5,231C 226.876,231.063 246.21,231.73 265.5,233C 284.035,241.574 290.535,255.741 285,275.5C 279.851,286.979 271.018,293.479 258.5,295C 240.833,295.667 223.167,295.667 205.5,295C 190.332,293.946 176.666,288.946 164.5,280C 157,272.5 149.5,265 142,257.5C 141.333,278.167 141.333,298.833 142,319.5C 143.167,322 145,323.833 147.5,325C 166.5,325.333 185.5,325.667 204.5,326C 231.573,329.607 251.406,343.441 264,367.5C 277.806,398.584 291.806,429.584 306,460.5C 311.603,480.791 304.77,494.958 285.5,503C 268.344,506.503 255.511,500.67 247,485.5C 234.861,458.083 222.527,430.749 210,403.5C 207.408,400.238 204.241,397.738 200.5,396C 157.213,394.355 113.879,394.022 70.5,395C 68.6667,395.5 67.5,396.667 67,398.5C 58.259,432.802 48.5923,466.802 38,500.5C 28.2133,511.062 17.38,512.229 5.5,504C 2.83733,501.157 0.837327,497.991 -0.5,494.5 Z"/></g>
<g><path style="opacity:0.97" fill="#000000" d="M 511.5,272.5 C 511.5,276.833 511.5,281.167 511.5,285.5C 508.94,293.22 503.607,298.053 495.5,300C 460.167,300.333 424.833,300.667 389.5,301C 388.667,301.833 387.833,302.667 387,303.5C 386.667,367.167 386.333,430.833 386,494.5C 379.366,509.396 368.533,513.562 353.5,507C 347.906,503.311 344.739,498.144 344,491.5C 343.667,428.5 343.333,365.5 343,302.5C 342.25,301.874 341.416,301.374 340.5,301C 327.5,300.667 314.5,300.333 301.5,300C 299.09,299.242 298.09,297.575 298.5,295C 300.233,289.361 302.4,283.861 305,278.5C 306.279,272.55 307.279,266.55 308,260.5C 308.903,259.299 310.069,258.465 311.5,258C 372.5,257.333 433.5,257.333 494.5,258C 502.514,260.188 508.181,265.021 511.5,272.5 Z"/></g>
</svg>
